<svg width="22" height="22" viewBox="0 0 22 22" fill="none" xmlns="http://www.w3.org/2000/svg">
<path d="M6 2.75V1.25M16 2.75V1.25" stroke="white" stroke-width="1.5" stroke-linecap="round"/>
<path d="M8 13.25L9.5 11.75V15.75" stroke="#383A44" stroke-width="1.5" stroke-linecap="round" stroke-linejoin="round"/>
<path d="M20.5 7.75H9.75M1 7.75H4.875M12 14.75V12.75C12 12.4848 12.1054 12.2304 12.2929 12.0429C12.4804 11.8554 12.7348 11.75 13 11.75C13.2652 11.75 13.5196 11.8554 13.7071 12.0429C13.8946 12.2304 14 12.4848 14 12.75V14.75C14 15.0152 13.8946 15.2696 13.7071 15.4571C13.5196 15.6446 13.2652 15.75 13 15.75C12.7348 15.75 12.4804 15.6446 12.2929 15.4571C12.1054 15.2696 12 15.0152 12 14.75Z" stroke="#383A44" stroke-width="1.5" stroke-linecap="round"/>
<path d="M13 20.75H9C5.229 20.75 3.343 20.75 2.172 19.578C1.001 18.406 1 16.521 1 12.75V10.75C1 6.979 1 5.093 2.172 3.922C3.344 2.751 5.229 2.75 9 2.75H13C16.771 2.75 18.657 2.75 19.828 3.922C20.999 5.094 21 6.979 21 10.75V12.75C21 16.521 21 18.407 19.828 19.578C19.175 20.232 18.3 20.521 17 20.648" stroke="#383A44" stroke-width="1.5" stroke-linecap="round"/>
</svg>
