<svg width="40" height="33" viewBox="0 0 40 33" fill="none" xmlns="http://www.w3.org/2000/svg">
<rect width="40" height="33" rx="6" fill="#EBEBEC" fill-opacity="0.5"/>
<path d="M15.545 17.0018V20.59M17.3407 18.7975H13.751M10.6614 17.3016L10.0214 23.0644C9.93007 23.8917 10.1326 24.7247 10.5935 25.4177C11.0544 26.1107 11.7444 26.6195 12.5427 26.855C13.3409 27.0905 14.1966 27.0378 14.9599 26.706C15.7232 26.3743 16.3454 25.7846 16.7178 25.0402L17.277 23.9249H21.8903L22.4495 25.0402C22.8224 25.7837 23.4449 26.3724 24.2079 26.7035C24.971 27.0345 25.8261 27.0868 26.6238 26.8512C27.4215 26.6156 28.111 26.1071 28.5718 25.4146C29.0325 24.7221 29.2352 23.8896 29.1443 23.0629L28.5059 17.3001C28.379 16.1604 27.8363 15.1075 26.9817 14.3429C26.1271 13.5783 25.0206 13.1557 23.8739 13.1558H15.2934C14.1464 13.1557 13.0397 13.5786 12.1851 14.3435C11.3305 15.1084 10.788 16.1617 10.6614 17.3016Z" stroke="#001A26" stroke-width="1.5" stroke-linecap="round" stroke-linejoin="round"/>
<path d="M19.5837 13.1558V11.6335C19.5837 11.2216 19.7474 10.8265 20.0387 10.5352C20.33 10.2439 20.7251 10.0802 21.1371 10.0802H23.4142C23.8262 10.0802 24.2213 9.91657 24.5126 9.62527C24.8039 9.33396 24.9675 8.93887 24.9675 8.52691V7M24.9675 17.7707C24.8698 17.7645 24.7781 17.7213 24.7111 17.6498C24.6441 17.5784 24.6068 17.4842 24.6068 17.3862C24.6068 17.2883 24.6441 17.194 24.7111 17.1226C24.7781 17.0512 24.8698 17.008 24.9675 17.0018C25.0201 16.9984 25.0727 17.0059 25.1223 17.0237C25.1718 17.0415 25.2172 17.0693 25.2556 17.1053C25.294 17.1414 25.3246 17.1849 25.3455 17.2332C25.3664 17.2815 25.3772 17.3336 25.3772 17.3862C25.3772 17.4389 25.3664 17.491 25.3455 17.5393C25.3246 17.5876 25.294 17.6311 25.2556 17.6671C25.2172 17.7032 25.1718 17.7309 25.1223 17.7487C25.0727 17.7666 25.0201 17.774 24.9675 17.7707ZM22.2756 19.6937C22.2818 19.5959 22.3251 19.5042 22.3965 19.4372C22.4679 19.3702 22.5621 19.3329 22.6601 19.3329C22.758 19.3329 22.8523 19.3702 22.9237 19.4372C22.9951 19.5042 23.0383 19.5959 23.0445 19.6937C23.0383 19.7914 22.9951 19.8831 22.9237 19.9501C22.8523 20.0172 22.758 20.0545 22.6601 20.0545C22.5621 20.0545 22.4679 20.0172 22.3965 19.9501C22.3251 19.8831 22.2818 19.7914 22.2756 19.6937Z" stroke="#001A26" stroke-width="1.5" stroke-linecap="round" stroke-linejoin="round"/>
</svg>
