<svg width="40" height="33" viewBox="0 0 40 33" fill="none" xmlns="http://www.w3.org/2000/svg">
<rect width="40" height="33" rx="6" fill="#EBEBEC" fill-opacity="0.5"/>
<path d="M22.1152 17.1536C25.3649 17.1536 27.9999 15.9832 27.9999 14.5382C27.9999 13.0931 25.3649 11.9227 22.1152 11.9227C18.8655 11.9227 16.2305 13.0931 16.2305 14.5382C16.2305 15.9832 18.8655 17.1536 22.1152 17.1536Z" stroke="black" stroke-width="1.5" stroke-linecap="round" stroke-linejoin="round"/>
<path d="M16.2305 14.5383V22.3846C16.2305 23.8231 18.8459 25.0001 22.1152 25.0001C25.3845 25.0001 27.9999 23.8231 27.9999 22.3846V14.5383" stroke="black" stroke-width="1.5" stroke-linecap="round" stroke-linejoin="round"/>
<path d="M28.0003 18.4614C28.0003 19.8999 25.3849 21.0769 22.1156 21.0769C18.8463 21.0769 16.2309 19.8999 16.2309 18.4614M21.9848 9.31919C20.4567 8.37617 18.678 7.92009 16.8847 8.01148C13.6285 8.01148 11 9.18842 11 10.6269C11 11.3985 11.7585 12.0916 12.9616 12.5885" stroke="black" stroke-width="1.5" stroke-linecap="round" stroke-linejoin="round"/>
<path d="M12.9616 20.4347C11.7585 19.9378 11 19.2447 11 18.4731V10.6268" stroke="black" stroke-width="1.5" stroke-linecap="round" stroke-linejoin="round"/>
<path d="M12.9616 16.5116C11.7585 16.0146 11 15.3215 11 14.55" stroke="black" stroke-width="1.5" stroke-linecap="round" stroke-linejoin="round"/>
</svg>
