<svg width="40" height="33" viewBox="0 0 40 33" fill="none" xmlns="http://www.w3.org/2000/svg">
<rect width="40" height="33" rx="6" fill="#EBEBEC" fill-opacity="0.5"/>
<path d="M27.2996 19.9762V15.7331C27.2996 12.0867 27.2996 10.2652 26.1794 9.13217C25.0591 8 23.2554 8 19.6498 8C16.0442 8 14.2405 8 13.1203 9.13217C12 10.2643 12 12.0884 12 15.7331V19.9771C12 22.6086 12 23.9252 12.6239 24.4998C12.9214 24.7744 13.2971 24.9469 13.6974 24.9928C14.5363 25.0889 15.5164 24.2219 17.4756 22.4888C18.3426 21.7229 18.7752 21.3396 19.2758 21.2393C19.5223 21.1883 19.7773 21.1883 20.0238 21.2393C20.5253 21.3396 20.9579 21.7229 21.8241 22.4888C23.7833 24.2219 24.7633 25.0888 25.6022 24.992C26.0017 24.9469 26.3783 24.7744 26.6758 24.4998C27.2996 23.9252 27.2996 22.6086 27.2996 19.9762Z" stroke="black" stroke-width="1.6"/>
<path d="M22.1997 11.3999H17.0999" stroke="black" stroke-width="1.6" stroke-linecap="round"/>
</svg>
